<svg width="872" height="607" viewBox="0 0 872 607" fill="none" xmlns="http://www.w3.org/2000/svg">
<path opacity="0.95" d="M923.925 0.298203V607H0.497803C9.4787 596.71 15.9348 585.721 22.1424 575.575C39.637 546.966 97.4388 494.933 196.542 521.271C293.383 547.014 338.671 493.223 338.606 448.471C338.606 444.073 338.174 439.786 337.294 435.656C327.533 389.386 273.831 346.775 235.587 312.073C197.357 277.386 188.54 229.831 201.954 189.323C220.547 133.213 322.14 71.2731 445.492 118.507C576.568 168.681 697.33 204.025 821 124.044C880.79 85.3713 909.86 38.4443 923.92 0.298203L923.925 0.298203Z" fill="url(#paint0_linear_1_216)"/>
<defs>
<linearGradient id="paint0_linear_1_216" x1="706.319" y1="647.625" x2="763.075" y2="394.852" gradientUnits="userSpaceOnUse">
<stop stop-color="#008095"/>
<stop offset="1" stop-color="#0BD2F2"/>
<stop offset="1" stop-color="#0BD2F2"/>
</linearGradient>
</defs>
</svg>
